<?xml version="1.0" standalone="no"?>
<!DOCTYPE svg PUBLIC "-//W3C//DTD SVG 20010904//EN"
 "http://www.w3.org/TR/2001/REC-SVG-20010904/DTD/svg10.dtd">
<svg version="1.0" xmlns="http://www.w3.org/2000/svg"
 width="474.000000pt" height="474.000000pt" viewBox="0 0 474.000000 474.000000"
 preserveAspectRatio="xMidYMid meet">

<g transform="translate(0.000000,474.000000) scale(0.100000,-0.100000)"
fill="#000000" stroke="none">
<path d="M1113 3762 c-73 -26 -132 -69 -165 -122 -87 -136 -71 -300 39 -412
72 -73 126 -93 258 -93 98 0 116 3 167 27 147 69 219 227 174 382 -30 103 -74
154 -176 207 -63 32 -221 38 -297 11z"/>
<path d="M2985 2896 c-171 -34 -291 -107 -385 -234 -25 -34 -49 -61 -53 -62
-5 0 -8 12 -7 28 1 15 2 73 1 130 l-1 102 -310 0 -310 0 0 -950 0 -950 310 0
c241 0 310 3 310 13 0 6 0 244 0 527 0 288 4 550 10 593 12 96 44 159 114 226
73 68 146 94 251 89 141 -7 228 -76 277 -218 22 -64 23 -74 26 -647 l3 -583
314 0 315 0 0 573 c0 314 -5 614 -10 665 -39 372 -225 616 -523 687 -92 22
-249 27 -332 11z"/>
<path d="M930 1910 l0 -950 315 0 315 0 0 950 0 950 -315 0 -315 0 0 -950z"/>
</g>
</svg>
